<svg xmlns="http://www.w3.org/2000/svg" viewBox="0 0 120 120" width="100%" height="100%">
  <defs>
    <linearGradient id="bg-ocean" x1="0%" y1="0%" x2="100%" y2="100%">
      <stop offset="0%" stop-color="#2563eb" />
      <stop offset="100%" stop-color="#06b6d4" />
    </linearGradient>
    <linearGradient id="peak-grad1" x1="0%" y1="0%" x2="0%" y2="100%">
      <stop offset="0%" stop-color="#ffffff" stop-opacity="0.3" />
      <stop offset="100%" stop-color="#ffffff" stop-opacity="0.02" />
    </linearGradient>
    <linearGradient id="peak-grad2" x1="0%" y1="0%" x2="0%" y2="100%">
      <stop offset="0%" stop-color="#ffffff" stop-opacity="0.15" />
      <stop offset="100%" stop-color="#ffffff" stop-opacity="0" />
    </linearGradient>
  </defs>
  <rect width="120" height="120" fill="url(#bg-ocean)" />
  <path d="M0,120 L0,70 L25,45 L55,75 L85,35 L120,70 L120,120 Z" fill="url(#peak-grad1)" />
  <path d="M0,120 L0,90 L35,60 L75,95 L105,65 L120,80 L120,120 Z" fill="url(#peak-grad2)" />
  <polyline points="0,70 25,45 55,75 85,35 120,70" fill="none" stroke="rgba(255, 255, 255, 0.4)" stroke-width="2.5" stroke-linecap="round" stroke-linejoin="round" />
  <circle cx="85" cy="35" r="4" fill="#ffffff" />
  <circle cx="25" cy="45" r="3" fill="#ffffff" opacity="0.8" />
</svg>
