<svg xmlns="http://www.w3.org/2000/svg" viewBox="0 0 120 120" width="100%" height="100%">
  <defs>
    <linearGradient id="bg-cosmic" x1="0%" y1="0%" x2="100%" y2="100%">
      <stop offset="0%" stop-color="#a855f7" />
      <stop offset="100%" stop-color="#ec4899" />
    </linearGradient>
  </defs>
  <rect width="120" height="120" fill="url(#bg-cosmic)" />
  <g stroke="rgba(255, 255, 255, 0.15)" stroke-width="1.5">
    <line x1="20" y1="20" x2="60" y2="40" />
    <line x1="60" y1="40" x2="100" y2="20" />
    <line x1="60" y1="40" x2="60" y2="80" />
    <line x1="60" y1="80" x2="20" y2="100" />
    <line x1="60" y1="80" x2="100" y2="100" />
    <line x1="20" y1="20" x2="20" y2="100" stroke-dasharray="4 4" />
    <line x1="100" y1="20" x2="100" y2="100" stroke-dasharray="4 4" />
  </g>
  <g fill="#ffffff">
    <circle cx="20" cy="20" r="4" />
    <circle cx="100" cy="20" r="4" />
    <circle cx="60" cy="40" r="6" fill-opacity="0.9" />
    <circle cx="60" cy="80" r="6" fill-opacity="0.9" />
    <circle cx="20" cy="100" r="4" />
    <circle cx="100" cy="100" r="4" />
  </g>
  <circle cx="60" cy="40" r="10" stroke="#ffffff" stroke-width="1.5" fill="none" opacity="0.3" />
  <circle cx="60" cy="80" r="10" stroke="#ffffff" stroke-width="1.5" fill="none" opacity="0.3" />
</svg>
